<svg xmlns="http://www.w3.org/2000/svg" xml:space="preserve" width="460" height="460"><path fill="#0099e5" d="M387.86 0H72.14A72.08 72.08 0 0 0 0 72.14v315.72A72.08 72.08 0 0 0 72.14 460h315.72c39.55 0 71.63-31.9 72.14-71.46-47.2-26.3-113.55-61.95-176.2-90.8-32.92 45.14-86.39 83.16-152.6 83.16-72.47 0-96.23-46.51-99.63-78.41-4.08-40.06 15.28-83.69 102.19-83.69 36.33 0 81.47 10.53 130.54 25.63a412.77 412.77 0 0 0 27.15-61.95H108.48v-17.15h94.55v-32.08H90.66v-19.52h112.37V61.96h52.28v51.77h112.37v19.52H255.3v32.08h91.15s-15.62 47.87-39.38 93.35c50.24 17.15 102.7 37 152.6 54.15V72.14C459.84 32.42 427.6 0 387.87 0zM48.55 298.74c1.02 20.71 10.52 55.17 71.8 55.17 53.47 0 95.06-40.74 121.03-74.85-45.82-19.18-86.74-32.25-112.37-32.25-69.25 0-81.47 33.94-80.46 51.93z"/></svg>