<svg xmlns="http://www.w3.org/2000/svg" width="612.84" height="421.92"><defs><linearGradient id="a" x1="178.27" x2="362.51" y1="283.8" y2="215.37" gradientTransform="translate(-72.76 -72.76)" gradientUnits="userSpaceOnUse"><stop offset="0" stop-color="#005ab9"/><stop offset="1" stop-color="#1e3764"/></linearGradient><linearGradient id="b" x1="394.43" x2="590.05" y1="237.3" y2="170.56" gradientTransform="translate(-72.76 -72.76)" gradientUnits="userSpaceOnUse"><stop offset="0" stop-color="#fba900"/><stop offset="1" stop-color="#ffd800"/></linearGradient></defs><path d="M21.1 0h570.65a21.1 21.1 0 0 1 21.1 21.1v379.73a21.1 21.1 0 0 1-21.1 21.1H21.1A21.1 21.1 0 0 1 0 400.82V21.1A21.1 21.1 0 0 1 21.1 0z" style="fill:#fff"/><path d="M54.57 366.11v-72.76h22.45c16.32 0 26.82 6.13 26.82 18.82 0 7.17-3.33 12.16-8 15.07 6.75 3.11 10.7 9.14 10.7 17.35 0 14.66-10.7 21.52-27.34 21.52zm14.45-42.51h10.7c6.55 0 9.36-3.22 9.36-9.15 0-6.34-5.1-8.42-11.95-8.42h-8.11zm0 29.83h8.94c8.73 0 13.82-2.18 13.82-9.04 0-6.76-4.36-9.57-12.58-9.57H69.02zm65.54 13.93c-14.24 0-21.41-6.97-21.41-16.32 0-10.3 8.42-16.32 20.89-16.42a65.09 65.09 0 0 1 9.25.83v-2.5c0-6.34-3.64-9.35-10.6-9.35a36.47 36.47 0 0 0-13.72 2.5l-2.6-11.23c4.47-1.87 11.64-3.12 17.98-3.12 15.28 0 22.87 8.1 22.87 22.14v28.9c-4.26 2.18-12.27 4.57-22.66 4.57zm8.73-11.75V344.5a34.91 34.91 0 0 0-7.38-.83c-4.78 0-8.52 1.87-8.52 6.75 0 4.37 3.12 6.66 8.62 6.66a16.27 16.27 0 0 0 7.28-1.46zm24.03 10.5v-49.79a63.47 63.47 0 0 1 23.49-4.57c15.17 0 23.9 7.48 23.9 21.3v33.06h-14.34V334.1c0-7.18-3.33-10.5-9.67-10.5a21.8 21.8 0 0 0-9.14 1.87v40.64zm97.52-51.24-2.7 11.33a31.66 31.66 0 0 0-11.75-2.6c-8.42 0-12.99 5.92-12.99 15.7 0 10.7 4.78 16.2 13.72 16.2a29.43 29.43 0 0 0 11.54-2.7l2.28 11.54a34.98 34.98 0 0 1-14.96 3.02c-17.26 0-27.24-10.7-27.24-27.65 0-16.84 9.88-27.96 26.4-27.96a40.06 40.06 0 0 1 15.7 3.12zm30.99 52.49c-16 0-25.99-11.12-25.99-27.86 0-16.63 9.98-27.75 25.99-27.75 16.1 0 25.88 11.12 25.88 27.75 0 16.74-9.77 27.86-25.88 27.86zm0-11.85c7.38 0 11.22-6.13 11.22-16 0-9.78-3.84-15.91-11.22-15.91-7.28 0-11.33 6.13-11.33 15.9 0 9.88 4.05 16 11.33 16zM330 366.1v-49.79a63.47 63.47 0 0 1 23.5-4.57c15.17 0 23.9 7.48 23.9 21.3v33.06h-14.35V334.1c0-7.18-3.32-10.5-9.66-10.5a21.8 21.8 0 0 0-9.15 1.87v40.64zm79.75 1.25c-12.37 0-18.71-6.76-18.71-20.48v-22.45h-7.07V313h7.07v-11.54l14.34-.73V313h11.54v11.43h-11.54v22.24c0 6.03 2.5 8.84 7.17 8.84a25.2 25.2 0 0 0 5.51-.63l.73 11.54a39.65 39.65 0 0 1-9.04.94zm36.2 0c-14.24 0-21.41-6.97-21.41-16.32 0-10.3 8.42-16.32 20.9-16.42a65.09 65.09 0 0 1 9.24.83v-2.5c0-6.34-3.64-9.35-10.6-9.35a36.47 36.47 0 0 0-13.72 2.5l-2.6-11.23c4.47-1.87 11.64-3.12 17.98-3.12 15.28 0 22.87 8.1 22.87 22.14v28.9c-4.26 2.18-12.26 4.57-22.66 4.57zm8.73-11.75V344.5a34.91 34.91 0 0 0-7.38-.83c-4.78 0-8.52 1.87-8.52 6.76 0 4.36 3.12 6.65 8.63 6.65a16.27 16.27 0 0 0 7.27-1.46zm63-40.74L515 326.2a31.66 31.66 0 0 0-11.74-2.6c-8.42 0-13 5.92-13 15.7 0 10.7 4.79 16.2 13.72 16.2a29.43 29.43 0 0 0 11.54-2.7l2.29 11.54a34.99 34.99 0 0 1-14.97 3.02c-17.25 0-27.23-10.7-27.23-27.65 0-16.84 9.87-27.96 26.4-27.96a40.06 40.06 0 0 1 15.7 3.12zm31.54 52.49c-12.37 0-18.7-6.76-18.7-20.48v-22.45h-7.08V313h7.07v-11.54l14.35-.73V313h11.53v11.43h-11.53v22.24c0 6.03 2.5 8.84 7.17 8.84a25.2 25.2 0 0 0 5.5-.63l.73 11.54a39.65 39.65 0 0 1-9.04.94z" style="fill:#1e3764"/><path fill="url(#a)" d="M154.62 256.97c75.9 0 113.85-50.6 151.8-101.2H54.57v101.2z" style="fill:url(#a)"/><path fill="url(#b)" d="M458.22 54.57c-75.9 0-113.85 50.6-151.8 101.2h251.85V54.57z" style="fill:url(#b)"/></svg>