<svg version="1.0" xmlns="http://www.w3.org/2000/svg" xmlns:xlink="http://www.w3.org/1999/xlink" viewBox="0 0 251.15 158.68" xml:space="preserve"><defs><path id="a" d="M242.646 158.68H8.504c-4.677 0-8.504-3.827-8.504-8.504V8.504C0 3.827 3.827 0 8.504 0h234.142c4.677 0 8.504 3.827 8.504 8.504v141.672c0 4.677-3.827 8.504-8.504 8.504z"/></defs><clipPath id="b"><use xlink:href="#a" overflow="visible"/></clipPath><path clip-path="url(#b)" fill="#FFF" d="m-1.208-1.149 253.535-.014v161.47l-253.499.005z"/><path clip-path="url(#b)" fill="#F48120" d="M251.432 88.638s-69.28 48.886-196.164 70.766h196.164V88.638z"/><path clip-path="url(#b)" fill="#231F20" d="M20.224 47.886H9.644v36.951h10.524c5.596 0 9.637-1.32 13.184-4.266 4.215-3.488 6.708-8.746 6.708-14.184.001-10.904-8.147-18.501-19.836-18.501zm8.42 27.758c-2.265 2.045-5.206 2.937-9.863 2.937h-1.934V54.147h1.934c4.657 0 7.483.833 9.863 2.988 2.493 2.219 3.992 5.659 3.992 9.198 0 3.548-1.499 7.093-3.992 9.311zM43.377 47.886h7.208v36.951h-7.208zM68.209 62.066c-4.325-1.6-5.595-2.656-5.595-4.652 0-2.328 2.263-4.096 5.369-4.096 2.16 0 3.934.887 5.812 2.992l3.771-4.938c-3.099-2.711-6.807-4.097-10.858-4.097-6.538 0-11.525 4.54-11.525 10.588 0 5.091 2.322 7.697 9.091 10.133 2.822.995 4.258 1.658 4.983 2.104 1.44.94 2.161 2.272 2.161 3.823 0 2.994-2.38 5.212-5.596 5.212-3.438 0-6.207-1.719-7.866-4.928L53.3 78.691c3.321 4.874 7.309 7.035 12.793 7.035 7.49 0 12.744-4.98 12.744-12.133 0-5.871-2.429-8.529-10.628-11.527zM81.111 66.387c0 10.861 8.529 19.283 19.504 19.283 3.103 0 5.76-.61 9.037-2.153v-8.485c-2.882 2.884-5.434 4.047-8.701 4.047-7.259 0-12.411-5.263-12.411-12.746 0-7.094 5.315-12.691 12.076-12.691 3.438 0 6.04 1.227 9.037 4.158v-8.481c-3.164-1.605-5.765-2.27-8.867-2.27-10.921.002-19.675 8.595-19.675 19.338zM166.799 72.706l-9.854-24.82h-7.874l15.682 37.899h3.878l15.963-37.899h-7.813zM187.853 84.837h20.441v-6.255h-13.239v-9.974h12.751v-6.259h-12.751v-8.202h13.239v-6.261h-20.441zM236.831 58.795c0-6.918-4.765-10.909-13.077-10.909h-10.687v36.951h7.199V69.993h.94l9.976 14.844h8.864L228.414 69.27c5.428-1.104 8.417-4.817 8.417-10.475zm-14.459 6.103h-2.105V53.706h2.219c4.489 0 6.929 1.881 6.929 5.477 0 3.715-2.44 5.715-7.043 5.715z"/><g clip-path="url(#b)"><linearGradient id="c" gradientUnits="userSpaceOnUse" x1="141.724" y1="76.436" x2="128.113" y2="97.746" gradientTransform="matrix(1 0 0 -1 0 158.68)"><stop offset="0" style="stop-color:#f89f20"/><stop offset=".25" style="stop-color:#f79a20"/><stop offset=".533" style="stop-color:#f68d20"/><stop offset=".62" style="stop-color:#f58720"/><stop offset=".723" style="stop-color:#f48120"/><stop offset="1" style="stop-color:#f37521"/></linearGradient><circle fill="url(#c)" cx="131.662" cy="66.49" r="19.657"/><linearGradient id="d" gradientUnits="userSpaceOnUse" x1="139.574" y1="76.726" x2="119.682" y2="115.606" gradientTransform="matrix(1 0 0 -1 0 158.68)"><stop offset="0" style="stop-color:#f58720;stop-opacity:0"/><stop offset=".359" style="stop-color:#e16f27;stop-opacity:.2704"/><stop offset=".703" style="stop-color:#d4602c;stop-opacity:.5299"/><stop offset=".982" style="stop-color:#d05b2e;stop-opacity:.74"/></linearGradient><circle opacity=".65" fill="url(#d)" cx="131.662" cy="66.49" r="19.657"/></g><g clip-path="url(#b)" fill="#231F20"><path d="M241.432 49.275c0-.648-.446-1.002-1.23-1.002h-1.043v3.248h.775v-1.26l.909 1.26h.946l-1.068-1.339c.459-.123.711-.456.711-.907zm-1.366.444h-.131v-.849h.139c.383 0 .583.138.583.418 0 .286-.202.431-.591.431z"/><path d="M240.359 47.06a2.815 2.815 0 0 0-2.829 2.831 2.825 2.825 0 0 0 2.829 2.832c1.536 0 2.795-1.274 2.795-2.832 0-1.551-1.259-2.831-2.795-2.831zm-.012 5.157c-1.241 0-2.256-1.033-2.256-2.322 0-1.293 1.002-2.325 2.256-2.325 1.235 0 2.242 1.056 2.242 2.325 0 1.278-1.006 2.322-2.242 2.322z"/></g></svg>