<svg width="2426.5" height="377.95" viewBox="0 0 187.09 29.141" xmlns="http://www.w3.org/2000/svg"><path d="M149.086 29.022v-7.646h.584l1.287-.258.912-.328.865-.49.771-.561.701-.701.607-.797.586-1.098.303-.912.211-.959.023-.818-.047-.959-.211-.959-.35-.889-.469-.865-.584-.771-1.053-.959-.818-.515-.889-.421-.936-.257-.982-.141h-.514V.001l.889.023 1.473.164 1.426.304 1.381.445 1.309.561 1.264.678 1.24.865 1.215 1.052 1.053 1.123.865 1.146.748 1.216.586 1.239.396 1.169.117.514V.538h7.039l9.354 13.822-.023-13.892 7.672.07v28.156h-6.924l-9.518-13.75v13.75h-7.6V18.71l-.188.537-.49 1.217-.656 1.262-.771 1.193-.889 1.123-.982 1.029-1.098.936-1.17.818-1.24.701-1.332.584-1.496.469-1.475.303-1.402.141h-.77zm0-29.021v7.717h-.469l-.982.141-.934.28-.891.421-.818.515-.748.655-.654.725-.537.842-.398.865-.281.936-.164.982v.959l.141.982.258.936.398.912.186.35.141.188.281.398.678.725.748.607.842.516.912.373.936.258.982.117.375-.023v7.646h-.654l-1.404-.117-1.402-.256-1.404-.445-1.332-.561-1.264-.654-1.17-.797-1.051-.889-.445-.373-.373-.375v4.139h-16.113V.538h7.553v21.187h6.479l-.281-.584-.303-.607-.516-1.287-.396-1.332-.281-1.404-.141-1.402v-1.38l.164-1.45.305-1.473.42-1.427.561-1.31.703-1.239.795-1.169.912-1.1 1.029-1.005 1.098-.889 1.193-.772 1.24-.631 1.309-.538 1.357-.375 1.402-.234L148.48 0h.606zM69.27 24.088v-6.549h1.707v-5.238l-1.707 2.596V2.152l.982-1.614h8.139v28.156h-7.414v-4.605H69.27zm15.271 4.606h7.483V7.391h5.378V.538h-18.03v6.853h5.168v21.303zm13.633 0h7.625V18.079h7.717v10.615h7.576V.538l-7.576-.023v10.851h-7.717V.538h-7.625zM12.583 7.765l.678.234.912.444.842.562.749.655.655.749.538.842.421.889.28.936.164.912.047.841-.07.842-.164.889-.328.912-.444.889-.655.865-.818.795-.912.68-.959.49-.935.328v7.062l.678-.094 1.59-.398 1.497-.537 1.262-.631 1.216-.797 1.123-.912.982-.957.865-1.076.842-1.264.444-.748v7.529h15.552v-6.781H30.59v-3.883h8.045v-6.689H30.59v-4.14h8.045V.538H23.083v7.788l-.164-.444-.631-1.052-.865-1.146L20.3 4.492l-1.169-1.006-1.192-.818-1.38-.702-1.707-.608-1.684-.445-.584-.093v6.945zM69.27 2.152v12.745l-1.708 2.643h1.708v6.549h-4.396l-.538.537-1.099 1.006-1.146.889-1.216.748-1.286.631-1.333.516-1.38.373-1.427.258-1.45.094-1.427-.023-1.403-.188-1.45-.326-1.474-.492-1.356-.607-1.192-.748-1.146-.842-1.005-.936-.936-1.053-.842-1.123-.726-1.238-.654-1.451-.538-1.59-.351-1.473-.164-1.451-.046-1.402.117-1.427.234-1.403.374-1.379.538-1.38.678-1.333.795-1.192.889-1.1.982-.982 1.099-.888 1.169-.795 1.31-.701 1.473-.608 1.497-.421 1.403-.257 1.427-.141L54.7.238l1.403.14 1.403.328 1.403.468 1.333.561 1.239.702 1.146.818 1.052.912.889.889.351.421-3.882 6.034-.982-.888-1.099-.819-1.24-.748-1.333-.608-1.333-.374-1.17-.14-1.122.07-1.146.281-1.122.421-.912.584-.748.631-.632.749-.538.842-.397.912-.281.959-.116.954v.959l.164.959.304.936.421.912.562.818.678.725.749.584.842.49.936.375 1.052.234 1.053.117 1.005-.07.936-.188.936-.352.842-.443.795-.561.631-.562.281-.279zM7.274 21.913V7.391h2.081l1.029.023.982.094.958.164.258.094V.82L11.459.656 9.542.539H0v28.156h10.945l1.029-.045.608-.07v-7.062l-.094.023-1.122.231-1.31.094-.725.047z" clip-rule="evenodd" fill-rule="evenodd"/></svg>