<svg xmlns="http://www.w3.org/2000/svg" viewBox="0 0 425 272"><g fill="none" fill-rule="evenodd"><path d="M386.73.09H33.68l-3.67.06c-2.66.08-5.35.23-7.99.7a26.9 26.9 0 00-7.59 2.5A25.52 25.52 0 003.27 14.53a26.77 26.77 0 00-2.5 7.59 52.74 52.74 0 00-.7 7.98A174.8 174.8 0 000 33.75L0 38.11V238.2l.06 3.66c.07 2.66.23 5.35.7 7.98a26.82 26.82 0 002.5 7.6 25.45 25.45 0 0011.17 11.15 26.92 26.92 0 007.6 2.5c2.63.48 5.32.63 7.98.7l3.67.06H391.1c1.22 0 2.44-.03 3.67-.05 2.66-.08 5.35-.23 7.99-.7a26.97 26.97 0 007.59-2.51 25.43 25.43 0 0011.16-11.16 26.65 26.65 0 002.5-7.59c.48-2.63.63-5.32.7-7.98.04-1.22.05-2.44.06-3.66l.01-4.36V38.11l-.01-4.36c0-1.22-.02-2.44-.06-3.66a52.73 52.73 0 00-.7-7.98 26.61 26.61 0 00-2.5-7.6A25.59 25.59 0 00402.75.87a53.25 53.25 0 00-8-.7C393.54.11 392.32.1 391.1.1l-4.36-.01" fill="#3C4043"/><path d="M386.73 9.15h4.3l3.48.06c2.03.05 4.41.16 6.63.56 1.93.35 3.54.88 5.1 1.66a16.4 16.4 0 017.19 7.2c.78 1.54 1.3 3.15 1.65 5.09.4 2.19.5 4.57.56 6.62.04 1.15.05 2.3.06 3.48V238.15c0 1.16-.02 2.31-.06 3.47a44.83 44.83 0 01-.56 6.64 17.59 17.59 0 01-1.66 5.06 16.38 16.38 0 01-7.2 7.2 17.7 17.7 0 01-5.06 1.66c-2.26.4-4.74.51-6.6.56-1.18.03-2.35.04-3.55.05H33.73c-1.17 0-2.34-.02-3.47-.05-1.91-.05-4.39-.16-6.63-.56a17.76 17.76 0 01-5.1-1.67 16.23 16.23 0 01-7.18-7.19 17.74 17.74 0 01-1.66-5.09c-.4-2.21-.51-4.58-.57-6.61-.03-1.16-.04-2.32-.05-3.47V33.8c0-1.16.02-2.32.05-3.48.06-2.03.17-4.4.57-6.63.34-1.92.87-3.53 1.66-5.08a16.37 16.37 0 017.2-7.19 17.8 17.8 0 015.08-1.66c2.21-.4 4.6-.5 6.63-.56 1.16-.03 2.32-.05 3.48-.05l4.3-.01h348.7" fill="#FFFFFE"/><g fill="#3C4043"><path d="M204.5 142.25v38.73h-12.1V85.37h32.1a28.54 28.54 0 0120.75 8.3 27.88 27.88 0 011.35 39.05l-1.35 1.37c-5.64 5.41-12.56 8.16-20.75 8.16h-20zm0-45.14v33.4h20.3c4.51.15 8.87-1.68 11.95-4.96a17 17 0 00-.37-23.71 16.38 16.38 0 00-11.58-4.73h-20.3zm77.35 16.32c8.95 0 16.01 2.44 21.2 7.24 5.19 4.8 7.74 11.51 7.74 19.98v40.33h-11.57v-9.07h-.53c-5.04 7.47-11.65 11.2-20 11.2-7.06 0-13.07-2.13-17.8-6.4a20.35 20.35 0 01-7.15-16c0-6.8 2.56-12.13 7.6-16.17 5.03-4.04 11.8-6.03 20.21-6.03 7.22 0 13.08 1.38 17.74 3.97v-2.82c0-4.2-1.8-8.16-4.96-10.9a17.45 17.45 0 00-11.65-4.5c-6.76 0-12.1 2.9-16.01 8.69L256 126.16c5.7-8.46 14.35-12.73 25.85-12.73zm-15.63 47.5c0 3.2 1.5 6.18 3.98 8a14.64 14.64 0 009.4 3.2c5.11 0 10-2.05 13.6-5.71 3.99-3.81 6.02-8.31 6.02-13.5-3.76-3.05-9.02-4.57-15.79-4.5-4.88 0-9.02 1.23-12.33 3.59-3.23 2.36-4.88 5.34-4.88 8.92z" fill-rule="nonzero"/><path d="M377.24 115.56l-40.44 94.17h-12.48l15.04-32.94-26.54-61.23h13.16l19.16 46.97h.23l18.72-46.97z"/></g><path d="M155.57 133.86c0-3.73-.3-7.47-.9-11.13h-51.04v21.12h29.24a25.45 25.45 0 01-10.82 16.7v13.72h17.44c10.22-9.53 16.08-23.63 16.08-40.4z" fill="#4285F4"/><path d="M103.63 187.54c14.58 0 26.91-4.88 35.86-13.27l-17.44-13.72c-4.89 3.35-11.13 5.26-18.42 5.26-14.13 0-26.08-9.68-30.37-22.65H55.3v14.19a53.98 53.98 0 0048.33 30.2z" fill="#34A853"/><path d="M73.26 143.16a33.58 33.58 0 010-21.04v-14.1H55.3a55.13 55.13 0 000 49.25l17.96-14.1z" fill="#FBBC04"/><path d="M103.63 99.47a28.9 28.9 0 0120.75 8.24L139.86 92a51.83 51.83 0 00-36.23-14.27c-20.44 0-39.16 11.75-48.33 30.27l17.96 14.19c4.29-13.04 16.24-22.73 30.37-22.73z" fill="#EA4335"/></g></svg>