<svg xmlns="http://www.w3.org/2000/svg" version="1.0" width="800" height="144.748" xml:space="preserve"><path d="M435.229 135.009h103.236v-12.61h-85.538v-40.35h64.249V69.29h-64.249V32.115h85.538V19.551H435.229v115.458M488.878.887l-13.977 15.702L518.778.887h-29.9M711.773 122.399V19.551h-16.136v115.458H800v-12.61h-88.227M605.359 19.551l-58.707 115.458h19.844l15.019-29.884h70.41l15.147 29.884h19.639L627.957 19.551h-22.598m-16.413 71.102 27.664-55.148 27.988 55.148h-55.652zM379.21 86.73c26.451-7.058 29.021-26.739 28.887-33.775-1.579-20.626-15.476-33.404-40.447-33.404h-72.77v115.458h16.589V86.576h47.375l34.853 48.433h20.909c-.001 0-25.082-32.596-35.396-48.279m-13.825-13.796h-53.916V33.217h55.795c12.846 0 20.072 5.997 22.675 13.615 1.722 5.222.618 12.077-2.231 16.744-4.663 7.716-13.521 9.358-22.323 9.358zM195.188 0c-46.828 0-78.745 33.017-78.745 72.979 0 42.07 35.257 71.769 78.745 71.769 43.459 0 78.702-29.275 78.702-71.769C273.89 33.017 241.578 0 195.188 0m-.562 130.416c-32.398 0-59.092-26.035-59.092-57.398 0-31.32 25.434-58.602 60.348-58.602 34.049 0 59.078 27.282 59.078 58.602 0 31.362-27.95 57.398-60.334 57.398zM74.663 60.396h11.97l21.727-40.845H90.876L74.663 60.396M16.145 122.399V19.551H0v115.458h104.359v-12.61H16.145"/></svg>