<?xml version="1.0" encoding="UTF-8"?>
<svg width="86.106mm" height="86.106mm" version="1.1" viewBox="0 0 86.106 86.106" xmlns="http://www.w3.org/2000/svg">
 <g transform="translate(-55.333 -43.223)">
  <path d="m59.231 76.826 10.223-10.223h7.4072c0.4714 0 0.9128 0.0757 1.294 0.2239 0.3351 0.1305 0.6314 0.3165 0.8647 0.5551 0 0.0412 13.191 13.242 14.592 14.643 1.3087 1.3086 3.0398 1.9623 4.7736 1.9622 1.7282-5e-4 3.4559-0.6547 4.7657-1.9622 4.8771-4.877 9.7734-9.7352 14.619-14.643 0.2332-0.2386 0.5296-0.4246 0.8647-0.5551 0.3812-0.1482 0.8226-0.2239 1.2939-0.2239h7.3888l10.223 10.223c5.197 5.197 5.197 13.701 0 18.898l-10.223 10.223h-7.3888c-0.4713 0-0.9127-0.0756-1.2939-0.2239-0.3351-0.1304-0.6315-0.3165-0.8647-0.5551-4.8459-4.908-9.7422-9.7661-14.619-14.643-1.3098-1.3075-3.0375-1.9617-4.7657-1.9621-1.7338-2e-4 -3.4649 0.6536-4.7736 1.9621-1.4009 1.4009-14.592 14.602-14.592 14.643-0.2333 0.2386-0.5296 0.4247-0.8647 0.5551-0.3812 0.1483-0.8226 0.2239-1.294 0.2239h-7.4072l-10.223-10.223c-5.197-5.1971-5.197-13.701 0-18.898zm14.799-14.799 14.907-14.907c5.1972-5.1972 13.701-5.1972 18.899 0l14.907 14.907h-2.8129c-2.0009 0-4.0123 0.7265-5.4254 2.1685-0.0244-0.0235-13.344 13.369-14.574 14.599-0.4263 0.423-0.9858 0.635-1.5438 0.635-0.5543 0-1.1119-0.213-1.5384-0.6394-1.3533-1.3532-14.558-14.597-14.56-14.594-1.413-1.442-3.4244-2.1685-5.4254-2.1685zm48.712 48.497-14.907 14.907c-5.1972 5.1971-13.701 5.1971-18.899 0l-14.907-14.907h2.8313c2.001 0 4.0124-0.7265 5.4254-2.1686 0.0026 2e-3 13.207-13.241 14.56-14.594 0.4265-0.4263 0.9841-0.6394 1.5384-0.6394 0.558 0 1.1175 0.212 1.5438 0.635 1.23 1.23 14.55 14.622 14.574 14.599 1.4131 1.4421 3.4245 2.1686 5.4254 2.1686z" clip-rule="evenodd" fill="#32bca9" fill-rule="evenodd" image-rendering="optimizeQuality" shape-rendering="geometricPrecision" stroke-width=".01"/>
 </g>
</svg>
