<?xml version="1.0" encoding="UTF-8"?>
<svg width="9.4721mm" height="9.4721mm" version="1.1" viewBox="0 0 9.4721 9.4721" xmlns="http://www.w3.org/2000/svg">
 <g transform="translate(-99.748 -95.515)" stroke-width=".26458">
  <circle class="st0" transform="rotate(-76.714)" cx="-73.556" cy="124.73" r="4.736" fill="#5f259f"/>
  <path d="m106.63 99.015c0-0.18521-0.15875-0.34396-0.34395-0.34396h-0.635l-1.4552-1.6669c-0.13229-0.15875-0.34396-0.21167-0.55563-0.15875l-0.50271 0.15875c-0.0794 0.02646-0.10583 0.13229-0.0529 0.18521l1.5875 1.5081h-2.4077c-0.0794 0-0.13229 0.05292-0.13229 0.13229v0.26458c0 0.18521 0.15875 0.34396 0.34396 0.34396h0.37041v1.27c0 0.9525 0.50271 1.5081 1.3494 1.5081 0.26458 0 0.47625-0.0265 0.74083-0.13229v0.84667c0 0.23812 0.18521 0.42333 0.42333 0.42333h0.37042c0.0794 0 0.15875-0.0794 0.15875-0.15875v-3.7835h0.60854c0.0794 0 0.13229-0.05292 0.13229-0.13229zm-1.6933 2.2754c-0.15875 0.0794-0.37042 0.10583-0.52917 0.10583-0.42333 0-0.635-0.21166-0.635-0.68791v-1.27h1.1642z" fill="#fff"/>
 </g>
</svg>
