<svg xmlns="http://www.w3.org/2000/svg" width="933.33" height="933.33" version="1.0" viewBox="0 0 700 700"><rect width="100%" height="100%" fill="#FFF"/><path d="m120.3 43.8-2.1.3v49c0 35.9.3 48.9 1.2 49l146.1.2c117.2.2 146 .5 150 1.6 19.6 5.2 32.9 12.9 44.6 26 15.4 17.1 22.1 38.4 19.4 62.1-.4 3.6-.9 6.8-1.2 7.3-.2.4-.7 2-.9 3.5-.3 1.5-1.8 5.7-3.3 9.4-8 18.9-24.1 34.8-43.3 42.5-13.9 5.7-13.4 5.6-79.3 5.8-64.4.2-64.9.2-66 4.8-.3 1.2-.4 22.7-.3 47.7l.3 45.5 8.7 12c10.7 14.6 7.9 10.8 30.4 42a9215.44 9215.44 0 0 0 26 36c2.5 3.7 43.8 61 46.4 64.5 1 1.4 17.4 24.1 36.5 50.5 19 26.4 35.3 49.1 36.3 50.4l1.8 2.5h67.6c67.3.1 67.6.1 66.6-1.9-.6-1.1-1.4-2.2-1.7-2.5-.4-.3-6.5-8.6-13.6-18.5-13.3-18.6-35.5-49.5-38.1-53L534.8 556c-20.8-28.9-49.3-68.5-52.7-73-1.4-1.9-4.6-6.4-7-9.9-2.4-3.5-4.9-7.1-5.7-8-.8-.9-2.9-3.7-4.6-6.3-1.8-2.5-8.1-11.3-14-19.5-23.7-32.8-27.9-38.7-28.1-39.6-.2-1.1.5-1.2 9.6-2.1 31.4-2.9 66.3-17.7 92.8-39.5 28.4-23.4 50.7-58.4 59.5-93.6.4-1.7.8-3.5 1-4 .6-2.4 2.5-12.4 3.2-17 .9-6.5.9-35.1 0-43.5-3.5-31.5-17.4-64.3-38.2-90-6.8-8.3-19.9-21.6-25.5-25.8-2-1.5-4.2-3.3-5-4-3-2.8-16.7-11.6-24.9-15.9-22-11.5-45.3-18.2-68.7-19.9-8.8-.7-301.9-1.2-306.2-.6z"/><path d="M118.2 425.5V656l2.2.1c1.1 0 26.6.1 56.5.1 36.7.1 54.5-.3 55-1 .3-.5.6-104.2.5-230.4V195.5l-57.1-.3-57.1-.2v230.5z"/></svg>