<svg width="210.25" height="30.787" xmlns="http://www.w3.org/2000/svg"><path d="M0 0v10.288h41.782V0zm0 20.498v10.288h41.782V20.498z" fill="#bbbcbe"/><path d="M64.558 0c-3.258 0-5.491.795-6.99 1.963-1.762 1.342-2.513 3.155-2.513 4.948 0 1.546.506 2.922 1.257 4.006 1.21 1.712 4.677 3.575 7.225 4.869 2.42 1.21 4.71 2.186 6.048 3.77.876 1.04 1.335 2.101 1.335 3.77 0 1.878-.83 3.314-2.12 4.32-1.298 1.004-3.108 1.57-5.027 1.57-4.423 0-6.751-1.307-8.09-6.44l-1.492.393c.547 1.834 1.034 3.615 1.414 6.204 2.416.877 5.353 1.414 7.775 1.414 3.716 0 6.497-1.087 8.247-2.67 1.586-1.42 2.356-3.327 2.356-5.498 0-2.045-.93-3.946-1.807-4.948-1.797-2.045-4.203-3.044-7.46-4.712-2.63-1.335-4.26-2.256-5.341-3.299-.792-.75-1.414-2.13-1.414-3.299 0-1.294.49-2.384 1.492-3.22 1.169-.995 2.862-1.57 4.948-1.57 4.929 0 5.8 1.514 6.676 5.811l1.492-.392c-.377-1.882-.773-4.1-1.021-5.812C69.415.348 67.23 0 64.558 0zm59.689.55v1.256c3.126 0 3.377.214 3.377 3.22v20.812c0 2.963-.251 3.142-3.377 3.142v1.178h13.587c4.342 0 6.776-1.008 8.403-2.592 1.669-1.586 2.357-3.647 2.357-5.733 0-2.296-1.166-3.94-2.67-5.105-1.794-1.382-4.195-2.114-6.912-2.199v-.078c2.63-.377 4.404-1.232 5.655-2.356 1.545-1.38 2.042-3.208 2.042-4.791 0-2.13-1.084-3.783-2.67-4.87C141.782.927 139.316.55 135.477.55h-11.231zm-17.357.707c-1.84 0-3.245.69-4.241 1.649-1.38 1.42-2.042 3.346-2.042 5.89v2.592h-3.063v1.335h3.063V26.31c0 2.55-.22 2.827-3.141 2.827v1.021h9.346v-1.02c-3.133 0-3.3-.242-3.3-2.75V12.724h5.263v-1.336h-5.262V8.953c0-2.966.5-4.499 1.335-5.498.581-.628 1.206-.942 2.042-.942 1.294 0 1.819.886 2.278 1.806.461.92.889 1.807 1.885 1.807.757 0 1.178-.418 1.178-1.257 0-.75-.597-1.797-1.807-2.592-.842-.543-1.825-1.02-3.534-1.02zm89.062 0c-1.542.958-2.981 1.432-5.026 1.727v.864c2.255 0 2.513.33 2.513 2.75v19.79c0 2.42-.091 2.749-2.513 2.749v1.02h7.775v-1.02c-2.297 0-2.356-.33-2.356-2.749V21.99l2.277-2.356 6.833 10.524h4.79v-1.021c-1.25.04-2.22-.107-3.14-1.57l-6.362-9.661 4.398-4.241c.958-.92 1.62-1.216 2.827-1.257v-1.02h-6.204v1.02c2.007 0 1.753.685.628 1.728l-5.969 5.812h-.078V1.492l-.393-.235zm-64.008.942h4.005c2.925 0 4.794.61 5.97 1.57.913.752 1.57 2.43 1.57 3.85 0 2-.678 3.474-1.885 4.476-1.508 1.253-3.876 1.806-6.754 1.806h-4.162V3.613c0-1.128.175-1.414 1.256-1.414zM115.53 6.126c-.54 4.38-2.315 5.403-4.948 5.655v.942h3.142V26.39c0 3.258 1.957 4.241 4.084 4.241 1.709 0 3-.534 4.084-1.492l-.629-.943c-.838.629-1.624 1.021-2.591 1.021-1.458 0-2.042-1.027-2.042-2.984V12.724h4.398v-1.335h-4.398V6.127zm-29.373 4.79c-2.673 0-4.656.77-6.283 2.278-1.668 1.625-2.513 4.245-2.513 7.54 0 3.801.964 6.311 2.592 7.854 1.67 1.46 3.703 2.042 6.204 2.042 2.63 0 4.615-.622 6.283-2.12 1.59-1.546 2.592-4.016 2.592-7.776 0-3.295-.962-5.83-2.592-7.461-1.627-1.546-3.49-2.356-6.283-2.356zm72.804 0c-2.208 0-3.625.55-4.712 1.179-1.339.792-2.2 1.904-2.2 2.906 0 .631.384 1.256 1.179 1.256.876 0 1.285-.436 1.492-1.02.38-.921.713-1.628 1.257-2.043.75-.59 1.573-.942 2.827-.942 1.38 0 2.362.42 2.984 1.256.547.71.707 1.948.707 2.906v1.807l-2.434.55c-2.674.58-4.782 1.473-6.205 2.434-1.835 1.207-2.592 2.715-2.592 4.634 0 1.586.647 2.74 1.65 3.534 1.087.877 2.51 1.257 3.848 1.257 2.755 0 4.395-.94 5.812-2.278h.157c.38 1.373 1.294 2.12 2.749 2.12 1.09 0 1.803-.216 2.513-.55l-.236-1.02a2.014 2.014 0 0 1-1.1.314c-.832 0-1.256-.792-1.256-2.67v-9.817c0-1.835-.333-2.95-1.413-4.163-1.046-1.165-2.52-1.65-5.027-1.65zm15.393 0c-1.38 1.003-2.802 1.436-4.634 1.729v.942c2.209-.041 2.435.251 2.435 2.67v10.131c0 2.507-.185 2.75-2.435 2.75v1.02h7.304v-1.02c-1.963 0-2.042-.243-2.042-2.75V16.335c1.672-2.3 3.588-3.927 5.34-3.927 1.126 0 1.889.324 2.436.864.791.84.942 2.143.942 3.77v9.346c0 2.507-.113 2.749-2.12 2.749v1.02h7.068v-1.02c-1.879 0-2.042-.333-2.042-2.67v-9.582c0-2.208-.531-3.713-1.492-4.634-.918-.876-2.212-1.335-4.006-1.335-2.296 0-4.454 1.33-6.126 3.456h-.078l-.157-3.22-.393-.236zm-88.276 1.336c1.756 0 3.201.556 4.163 1.728 1.124 1.46 1.727 3.537 1.727 6.754 0 3.38-.763 5.494-1.806 6.833-.958 1.083-2.253 1.806-4.005 1.806-1.753 0-3.13-.723-4.084-1.806-1.043-1.339-1.728-3.453-1.728-6.833 0-3.217.606-5.294 1.728-6.754.999-1.172 2.337-1.728 4.005-1.728zm44.609 3.22h5.184c3.418 0 5.764.597 7.225 1.728 1.495 1.127 2.278 2.717 2.278 4.555 0 2.174-.648 3.75-1.65 4.79-1.42 1.465-3.317 2.043-6.283 2.043h-5.183c-1.294 0-1.57-.293-1.57-2.042zm31.808 4.005v7.383c-1.046 1.04-2.428 2.199-4.477 2.199-1.25 0-2.199-.43-2.827-1.021-.628-.622-.864-1.502-.864-2.592 0-1.916 1.125-3.053 2.749-3.927 1.542-.958 3.622-1.542 5.42-2.042z" fill="#212121"/></svg>