<svg xml:space="preserve" xmlns="http://www.w3.org/2000/svg" viewBox="0 0 496.8 438.5"><path d="m140.7 409.2-5.2 3-14.9 8.5-6.6 3.9-8.5 4.8c-5.2 3-10.2 6.1-15.5 8.8-3.7 1-8-.6-9.7-4.2-1.6-3-.6-6.3.2-9.2l4-15 4.1-15.2 2.2-8.2c.7-2.5 1.4-5 1.9-7.5.4-3.5-.5-7-2-10-1.3-2-3-3.9-5-5.4a289.8 289.8 0 0 1-18.2-14.7 246.7 246.7 0 0 1-16-15.5l-6.5-7.5a214.2 214.2 0 0 1-14.8-20l-1.7-2.6a197.7 197.7 0 0 1-13.8-25.9l-1.7-4.2a174.8 174.8 0 0 1 1.7-136.4l.2-.4a199.4 199.4 0 0 1 27.7-45.1l2.7-3.3a214.3 214.3 0 0 1 30.3-29.6 245.8 245.8 0 0 1 60.4-36 270.6 270.6 0 0 1 60.4-17.8A323.3 323.3 0 0 1 240.8 0h14.6a313.5 313.5 0 0 1 62.4 8.2 270.7 270.7 0 0 1 45.7 15.3c5 2.2 10 4.7 15 7l.3.3c5 2.7 10 5.3 14.8 8.3a243.4 243.4 0 0 1 45.2 35l2.2 2.3c3.7 3.6 7 7.5 10.4 11.3l-6 2.7-6.7 3c-5 2.1-9.9 4.4-14.8 6.6l-13.2 5.9-1.9.8-15.2 6.7-30.4 13.6-30.2 13.4-15.1 6.8c-3.2 1.3-6.3 2.8-9.4 4.2l-5.9 2.5-15.4 6.9-12.4 5.6-2.5 1-15.2 6.8-30.4 13.6-23.2 10.3c-2.3 1-4.7 2-7.2 2.5a25.7 25.7 0 0 1-18.2-3.8l-11.7-8.4-9.6-6.8-5.7-4a2599.5 2599.5 0 0 0-25.8-18.4c-1.4-1-3-1.6-4.6-2-5.4-.3-10 4.8-8.8 10.1 4.3 10 9 19.9 13.5 29.9l7 15.5c1 2 2 4.1 2.8 6.2 1.4 3 2.8 5.8 4 8.8l7 15 4.3 9.6 2.6 5.7c2.7 5.2 4.3 11 8 15.8 1.4 1.4 3 2.6 4.7 3.6a17 17 0 0 0 16-.7l5.3-3.1 9.6-5.5 30.3-17.5 13-7.6 2.2-1.2 15.2-8.7 8.5-5 6.7-3.8c5-3 10-5.9 15.1-8.7 1.5-1 3-1.8 4.6-2.7l10.6-6.2 30.4-17.5 11.5-6.7 3.5-2 15.1-8.7 7.9-4.6 7.2-4.1 30.6-17.7 14.4-8.3 1.1-.7 15-8.6 10.6-6.1 4.3-2.5c4.8-2.7 9.4-5.7 14.3-8 1.8 3.5 4 6.8 5.8 10.3a190 190 0 0 1 7.6 15.5l1.9 4.5a177.4 177.4 0 0 1 12.7 71 190.5 190.5 0 0 1-3.6 30 185.8 185.8 0 0 1-39.2 80.9 233.8 233.8 0 0 1-29.8 30c-4.4 3.7-8.9 7.1-13.5 10.4l-2 1.5a242.5 242.5 0 0 1-52.7 28.5 380 380 0 0 1-23 8c-5.3 1.6-10.5 3-15.8 4.3l-13.5 3-1 .1a332.7 332.7 0 0 1-45.5 4.8A296.7 296.7 0 0 1 198 410l-4.9-.9-11.7-2.5c-5.1-1.2-10.2-2.6-15.3-4-5-1.3-10.4-.9-15.2 1" fill="#42ba3b"/></svg>